<svg width="58" height="58" viewBox="0 0 58 58" fill="none" xmlns="http://www.w3.org/2000/svg">
<mask id="mask0_28_67" style="mask-type:alpha" maskUnits="userSpaceOnUse" x="0" y="0" width="58" height="58">
<rect width="58" height="58" fill="#D9D9D9"/>
</mask>
<g mask="url(#mask0_28_67)">
<path d="M27.1876 53.65V49.4673C22.1529 48.9498 17.9144 46.9699 14.4723 43.5278C11.0302 40.0856 9.05031 35.8472 8.53274 30.8125H4.3501V27.1875H8.53274C9.05031 22.1528 11.0302 17.9143 14.4723 14.4722C17.9144 11.03 22.1529 9.05019 27.1876 8.53262V4.34998H30.8126V8.53262C35.8473 9.05019 40.0858 11.03 43.5279 14.4722C46.97 17.9143 48.9499 22.1528 49.4675 27.1875H53.6501V30.8125H49.4675C48.9499 35.8472 46.97 40.0856 43.5279 43.5278C40.0858 46.9699 35.8473 48.9498 30.8126 49.4673V53.65H27.1876ZM29.0001 45.9166C33.6723 45.9166 37.6598 44.2653 40.9626 40.9625C44.2654 37.6597 45.9168 33.6722 45.9168 29C45.9168 24.3278 44.2654 20.3403 40.9626 17.0375C37.6598 13.7347 33.6723 12.0833 29.0001 12.0833C24.3279 12.0833 20.3404 13.7347 17.0376 17.0375C13.7348 20.3403 12.0834 24.3278 12.0834 29C12.0834 33.6722 13.7348 37.6597 17.0376 40.9625C20.3404 44.2653 24.3279 45.9166 29.0001 45.9166ZM29.0001 37.4583C26.6741 37.4583 24.6829 36.63 23.0267 34.9734C21.3701 33.3172 20.5418 31.326 20.5418 29C20.5418 26.6739 21.3701 24.6828 23.0267 23.0266C24.6829 21.37 26.6741 20.5416 29.0001 20.5416C31.3261 20.5416 33.3173 21.37 34.9735 23.0266C36.6301 24.6828 37.4584 26.6739 37.4584 29C37.4584 31.326 36.6301 33.3172 34.9735 34.9734C33.3173 36.63 31.3261 37.4583 29.0001 37.4583ZM29.0001 33.8333C30.3293 33.8333 31.4671 33.36 32.4136 32.4135C33.3602 31.467 33.8334 30.3291 33.8334 29C33.8334 27.6708 33.3602 26.533 32.4136 25.5864C31.4671 24.6399 30.3293 24.1666 29.0001 24.1666C27.6709 24.1666 26.5331 24.6399 25.5866 25.5864C24.64 26.533 24.1668 27.6708 24.1668 29C24.1668 30.3291 24.64 31.467 25.5866 32.4135C26.5331 33.36 27.6709 33.8333 29.0001 33.8333Z" fill="white"/>
</g>
</svg>
