<svg width="27" height="32" viewBox="0 0 27 32" fill="none" xmlns="http://www.w3.org/2000/svg">
<path d="M24.6136 12.7839H2.38636V7.44068C2.38636 7.17607 2.48938 6.92506 2.72275 6.6814C2.95655 6.4373 3.19225 6.33475 3.43506 6.33475H23.5649C23.8077 6.33475 24.0434 6.4373 24.2772 6.6814C24.5106 6.92506 24.6136 7.17607 24.6136 7.44068V12.7839ZM6.68182 0.75H6.43182V1V4.6483H3.43506C2.66784 4.6483 2.01947 4.91316 1.50939 5.44572C1.00003 5.97753 0.75 6.64912 0.75 7.44068V28.4576C0.75 29.2492 1.00003 29.9208 1.50939 30.4526C2.01947 30.9851 2.66784 31.25 3.43506 31.25H23.5649C24.3322 31.25 24.9805 30.9851 25.4906 30.4526C26 29.9208 26.25 29.2492 26.25 28.4576V7.44068C26.25 6.64912 26 5.97753 25.4906 5.44572C24.9805 4.91316 24.3322 4.6483 23.5649 4.6483H20.5682V1V0.75H20.3182H19.1818H18.9318V1V4.6483H8.23052V1V0.75H7.98052H6.68182ZM24.2772 29.2169C24.0434 29.461 23.8077 29.5636 23.5649 29.5636H3.43506C3.19225 29.5636 2.95655 29.461 2.72275 29.2169C2.48938 28.9732 2.38636 28.7222 2.38636 28.4576V14.4703H24.6136V28.4576C24.6136 28.7222 24.5106 28.9732 24.2772 29.2169ZM12.5281 19.7958C12.7991 20.0788 13.1259 20.233 13.5 20.233C13.8741 20.233 14.2009 20.0788 14.4719 19.7958C14.7431 19.5127 14.8864 19.1766 14.8864 18.7966C14.8864 18.4166 14.7431 18.0805 14.4719 17.7974C14.2009 17.5144 13.8741 17.3602 13.5 17.3602C13.1259 17.3602 12.7991 17.5144 12.5281 17.7974C12.2569 18.0805 12.1136 18.4166 12.1136 18.7966C12.1136 19.1766 12.2569 19.5127 12.5281 19.7958ZM6.03455 19.7958C6.3056 20.0788 6.63238 20.233 7.00649 20.233C7.38061 20.233 7.70738 20.0788 7.97844 19.7958C8.24956 19.5127 8.39286 19.1766 8.39286 18.7966C8.39286 18.4166 8.24956 18.0805 7.97844 17.7974C7.70738 17.5144 7.38061 17.3602 7.00649 17.3602C6.63238 17.3602 6.3056 17.5144 6.03455 17.7974C5.76343 18.0805 5.62013 18.4166 5.62013 18.7966C5.62013 19.1766 5.76343 19.5127 6.03455 19.7958ZM19.0216 19.7958C19.2926 20.0788 19.6194 20.233 19.9935 20.233C20.3676 20.233 20.6944 20.0788 20.9654 19.7958C21.2366 19.5127 21.3799 19.1766 21.3799 18.7966C21.3799 18.4166 21.2366 18.0805 20.9654 17.7974C20.6944 17.5144 20.3676 17.3602 19.9935 17.3602C19.6194 17.3602 19.2926 17.5144 19.0216 17.7974C18.7504 18.0805 18.6071 18.4166 18.6071 18.7966C18.6071 19.1766 18.7504 19.5127 19.0216 19.7958ZM12.5281 26.2365C12.7991 26.5195 13.1259 26.6737 13.5 26.6737C13.8741 26.6737 14.2009 26.5195 14.4719 26.2365C14.7431 25.9534 14.8864 25.6173 14.8864 25.2373C14.8864 24.8573 14.7431 24.5212 14.4719 24.2381C14.2009 23.9551 13.8741 23.8008 13.5 23.8008C13.1259 23.8008 12.7991 23.9551 12.5281 24.2381C12.2569 24.5212 12.1136 24.8573 12.1136 25.2373C12.1136 25.6173 12.2569 25.9534 12.5281 26.2365ZM6.03455 26.2365C6.3056 26.5195 6.63238 26.6737 7.00649 26.6737C7.38061 26.6737 7.70738 26.5195 7.97844 26.2365C8.24956 25.9534 8.39286 25.6173 8.39286 25.2373C8.39286 24.8573 8.24956 24.5212 7.97844 24.2381C7.70738 23.9551 7.38061 23.8008 7.00649 23.8008C6.63238 23.8008 6.3056 23.9551 6.03455 24.2381C5.76343 24.5212 5.62013 24.8573 5.62013 25.2373C5.62013 25.6173 5.76343 25.9534 6.03455 26.2365ZM19.0216 26.2365C19.2926 26.5195 19.6194 26.6737 19.9935 26.6737C20.3676 26.6737 20.6944 26.5195 20.9654 26.2365C21.2366 25.9534 21.3799 25.6173 21.3799 25.2373C21.3799 24.8573 21.2366 24.5212 20.9654 24.2381C20.6944 23.9551 20.3676 23.8008 19.9935 23.8008C19.6194 23.8008 19.2926 23.9551 19.0216 24.2381C18.7504 24.5212 18.6071 24.8573 18.6071 25.2373C18.6071 25.6173 18.7504 25.9534 19.0216 26.2365Z" fill="#B99470" stroke="#B99470" stroke-width="0.5"/>
</svg>
