<svg width="123" height="73" viewBox="0 0 123 73" fill="none" xmlns="http://www.w3.org/2000/svg">
<path d="M40.6319 2.89276C40.6319 2.89276 20.9445 9.12416 9.26408 25.4438C-4.41787 44.5558 -2.94428 64.7768 13.681 70.9968C28.3334 76.4762 52.4206 68.7579 66.9428 53.9708C55.9508 63.4693 40.7857 67.7534 31.6955 65.6294C18.7038 62.5996 17.2596 46.8867 29.4414 28.9673C34.7793 21.1189 41.6849 14.7014 48.862 9.75652C48.862 9.75652 63.5988 -0.223419 74.9365 2.94498C74.9365 2.94498 58.8343 -3.3396 40.6319 2.89276Z" fill="#00A650"/>
<path d="M81.4094 69.869C81.4094 69.869 101.098 63.6366 112.777 47.317C126.458 28.205 124.987 7.98495 108.36 1.76684C93.7061 -3.71544 69.6216 4.0038 55.0985 18.79C66.0905 9.29048 81.2565 5.00835 90.344 7.13233C103.337 10.1621 104.782 25.874 92.599 43.7935C87.262 51.6438 80.3574 58.0584 73.1803 63.0052C73.1803 63.0052 58.4425 72.9842 47.1058 69.8167C47.1058 69.8167 63.2079 76.1004 81.4094 69.869Z" fill="#005BAB"/>
<path d="M54.9807 18.9517C54.9674 18.9688 54.9474 18.9906 54.9379 19.0039L54.9807 18.9517ZM78.5134 19.8252C74.6681 17.8076 66.1987 18.5938 60.0917 24.7948C53.8897 31.0927 53.3694 36.291 58.4235 38.7796C59.0283 39.0151 60.1971 39.6959 59.7034 41.2625C59.3112 42.4978 58.2497 44.0701 55.6083 45.5C52.3373 46.8853 48.849 46.29 47.1332 44.749C43.23 41.2445 45.6739 29.9599 55.0414 18.8814C40.1119 32.1817 37.2046 46.2359 41.763 51.0592C46.3718 55.9348 63.2743 57.9676 76.8737 40.3016C78.8201 37.7722 82.3389 32.5501 82.2268 27.6821C82.1271 23.287 80.4902 20.864 78.5134 19.8252Z" fill="#ED1C24"/>
</svg>
